<svg width="42" height="42" viewBox="0 0 42 42" fill="none" xmlns="http://www.w3.org/2000/svg">
<path fill-rule="evenodd" clip-rule="evenodd" d="M17.5714 6H14.7143V13.8261H17.5714V6ZM16.1429 19.0435C17.3263 19.0435 18.2857 18.1675 18.2857 17.087C18.2857 16.0064 17.3263 15.1304 16.1429 15.1304C14.9594 15.1304 14 16.0064 14 17.087C14 18.1675 14.9594 19.0435 16.1429 19.0435ZM17.5714 20.3478V36H14.7143V20.3478H17.5714ZM25.4031 26.8695C26.5866 26.8695 27.546 25.9935 27.546 24.913C27.546 23.8324 26.5866 22.9565 25.4031 22.9565C24.2196 22.9565 23.2603 23.8324 23.2603 24.913C23.2603 25.9935 24.2196 26.8695 25.4031 26.8695ZM23.9278 28.1737H26.785V35.9998H23.9278V28.1737ZM26.9038 6.00014H24.0467V21.6523H26.9038V6.00014Z" fill="white"/>
</svg>
