<svg width="36" height="36" viewBox="0 0 36 36" fill="none" xmlns="http://www.w3.org/2000/svg">
<path fill-rule="evenodd" clip-rule="evenodd" d="M18.0382 35.5853C27.7292 35.5853 35.5853 27.7292 35.5853 18.0382C35.5853 8.34727 27.7292 0.491203 18.0382 0.491203C8.34727 0.491203 0.491203 8.34727 0.491203 18.0382C0.491203 27.7292 8.34727 35.5853 18.0382 35.5853ZM33.5853 18.0382C33.5853 26.6246 26.6246 33.5853 18.0382 33.5853C9.45184 33.5853 2.4912 26.6246 2.4912 18.0382C2.4912 9.45184 9.45184 2.4912 18.0382 2.4912C26.6246 2.4912 33.5853 9.45184 33.5853 18.0382ZM24.257 12.8559V16.4835L29.2321 12.3376V23.7388L24.257 19.5929V23.2206C24.257 23.7906 23.6973 24.257 23.0133 24.257H8.08813C7.40406 24.257 6.84437 23.7906 6.84437 23.2206V12.8559C6.84437 12.2858 7.40406 11.8194 8.08813 11.8194H23.0133C23.6973 11.8194 24.257 12.2858 24.257 12.8559Z" fill="white"/>
</svg>
