<svg width="48" height="48" viewBox="0 0 48 48" fill="none" xmlns="http://www.w3.org/2000/svg">
<path fill-rule="evenodd" clip-rule="evenodd" d="M10.3529 7.86204V9.23077H12.3529V7.69231H22.5882V9.23077H24.5882V7.69231H33.1765C33.4143 7.69231 33.6498 7.70269 33.8824 7.72302V9.23077H35.8824V8.1615C38.969 9.27072 41.1765 12.2237 41.1765 15.6923V18.6462H45.1765V15.6923C45.1765 9.99538 41.2066 5.22567 35.8824 3.99863V0H33.8824V3.71272C33.6488 3.69918 33.4134 3.69231 33.1765 3.69231H24.5882V0H22.5882V3.69231H12.3529V0H10.3529V3.80441C4.50484 4.60716 0 9.62364 0 15.6923V36C0 42.6274 5.37257 48 12 48H20.8941V44H12C7.58172 44 4 40.4183 4 36V15.6923C4 11.8386 6.72483 8.62134 10.3529 7.86204ZM34.4335 21.4154C26.9523 21.4154 20.8941 27.3703 20.8941 34.7077C20.8941 42.045 26.9523 48 34.4335 48C41.9283 48 48 42.045 48 34.7077C48 27.3703 41.9283 21.4154 34.4335 21.4154ZM34.4471 45.3415C28.4567 45.3415 23.6047 40.5829 23.6047 34.7077C23.6047 28.8325 28.4567 24.0738 34.4471 24.0738C40.4375 24.0738 45.2894 28.8325 45.2894 34.7077C45.2894 40.5829 40.4375 45.3415 34.4471 45.3415ZM35.1247 28.0615H33.0918V36.0369L40.2071 40.224L41.2235 38.589L35.1247 35.04V28.0615Z" fill="white"/>
</svg>
