<svg width="42" height="42" viewBox="0 0 42 42" fill="none" xmlns="http://www.w3.org/2000/svg">
<path fill-rule="evenodd" clip-rule="evenodd" d="M5 5H13V13.5333H5V5ZM7 7.13333H11V11.4H7V7.13333ZM5 28.4667H13V37H5V28.4667ZM7 30.6H11V34.8667H7V30.6ZM13 16.7333H5V25.2667H13V16.7333ZM11 18.8667H7V23.1333H11V18.8667ZM15 5H37V13.5333H15V5ZM18 7.84445H34V10.6889H18V7.84445ZM37 28.4667H15V37H37V28.4667ZM34 31.3111H18V34.1556H34V31.3111ZM15 16.7333H37V25.2667H15V16.7333ZM18 19.5778H34V22.4222H18V19.5778Z" fill="#36B185"/>
</svg>
